<svg width="44" height="44" viewBox="0 0 44 44" fill="none" xmlns="http://www.w3.org/2000/svg">
<path d="M5 0C2.26563 0 0 2.26563 0 5V39C0 41.7344 2.26563 44 5 44H39C41.7344 44 44 41.7344 44 39V5C44 2.26563 41.7344 0 39 0H5ZM5 4H39C39.5703 4 40 4.42969 40 5V39C40 39.5703 39.5703 40 39 40H5C4.42969 40 4 39.5703 4 39V5C4 4.42969 4.42969 4 5 4ZM10.875 7.4375C8.97656 7.4375 7.4375 8.97656 7.4375 10.875C7.4375 12.7734 8.97656 14.3125 10.875 14.3125C12.7734 14.3125 14.3125 12.7734 14.3125 10.875C14.3125 8.97656 12.7734 7.4375 10.875 7.4375ZM28.9375 16.5625C26.0703 16.5625 24.1641 18.1328 23.375 19.625H23.25V17H17.625V36H23.5V26.625C23.5 24.1484 23.9922 21.75 27.0625 21.75C30.0859 21.75 30.125 24.5469 30.125 26.75V36H36V25.5625C36 20.4531 34.9141 16.5625 28.9375 16.5625ZM8 17V36H13.9375V17H8Z" fill="#191716"/>
</svg>
