<svg width="64" height="64" viewBox="0 0 64 64" fill="none" xmlns="http://www.w3.org/2000/svg">
<path d="M15 10C12.2656 10 10 12.2656 10 15V49C10 51.7344 12.2656 54 15 54H49C51.7344 54 54 51.7344 54 49V15C54 12.2656 51.7344 10 49 10H15ZM15 14H49C49.5703 14 50 14.4297 50 15V49C50 49.5703 49.5703 50 49 50H15C14.4297 50 14 49.5703 14 49V15C14 14.4297 14.4297 14 15 14ZM20.875 17.4375C18.9766 17.4375 17.4375 18.9766 17.4375 20.875C17.4375 22.7734 18.9766 24.3125 20.875 24.3125C22.7734 24.3125 24.3125 22.7734 24.3125 20.875C24.3125 18.9766 22.7734 17.4375 20.875 17.4375ZM38.9375 26.5625C36.0703 26.5625 34.1641 28.1328 33.375 29.625H33.25V27H27.625V46H33.5V36.625C33.5 34.1484 33.9922 31.75 37.0625 31.75C40.0859 31.75 40.125 34.5469 40.125 36.75V46H46V35.5625C46 30.4531 44.9141 26.5625 38.9375 26.5625ZM18 27V46H23.9375V27H18Z" fill="white"/>
</svg>
